HIERARCHY
ROOT hip
{
  OFFSET 63.9115 45.6495 86.1472
  CHANNELS 6 Xposition Yposition Zposition Zrotation Xrotation Yrotation
  JOINT abdomen
  {
    OFFSET 0 6.09653 0.699602
    CHANNELS 3 Zrotation Xrotation Yrotation
    JOINT chest
    {
      OFFSET 0 2.49857 -0.699602
      CHANNELS 3 Zrotation Xrotation Yrotation
      JOINT rCollar
      {
        OFFSET -1.49915 11.2936 -1.69903
        CHANNELS 3 Zrotation Xrotation Yrotation
        JOINT rShldr
        {
          OFFSET -4.89721 -0.299829 0.799545
          CHANNELS 3 Zrotation Xrotation Yrotation
          JOINT rForeArm
          {
            OFFSET -12.4216 -1.19922 0.931564
            CHANNELS 3 Zrotation Xrotation Yrotation
            JOINT rHand
            {
              OFFSET -9.86568 0.0998477 3.66582
              CHANNELS 3 Zrotation Xrotation Yrotation
              JOINT rRing1
              {
                OFFSET -3.39807 0.399775 0.299829
                CHANNELS 3 Zrotation Xrotation Yrotation
                JOINT rRing2
                {
                  OFFSET -1.29926 -0.199888 0.399772
                  CHANNELS 3 Zrotation Xrotation Yrotation
                  End Site
                  {
                    OFFSET -0.899487 -0.0999402 0.199886
                  }
                }
              }
              JOINT rMid1
              {
                OFFSET -2.99829 0.499717 1.09937
                CHANNELS 3 Zrotation Xrotation Yrotation
                JOINT rMid2
                {
                  OFFSET -1.45827 -0.0999391 0.600149
                  CHANNELS 3 Zrotation Xrotation Yrotation
                  End Site
                  {
                    OFFSET -1.0403 -0.0999474 0.399282
                  }
                }
              }
              JOINT rIndex1
              {
                OFFSET -2.69847 0.399775 2.09881
                CHANNELS 3 Zrotation Xrotation Yrotation
                JOINT rIndex2
                {
                  OFFSET -1.33823 -0.200883 0.6843
                  CHANNELS 3 Zrotation Xrotation Yrotation
                  End Site
                  {
                    OFFSET -0.760569 0.00099747 0.415074
                  }
                }
              }
              JOINT rPinky1
              {
                OFFSET -3.29812 0.0999423 -0.399772
                CHANNELS 3 Zrotation Xrotation Yrotation
                JOINT rPinky2
                {
                  OFFSET -0.899492 -0.0999405 0
                  CHANNELS 3 Zrotation Xrotation Yrotation
                  End Site
                  {
                    OFFSET -0.999429 -0.0999421 0
                  }
                }
              }
              JOINT rThumb1
              {
                OFFSET -0.399773 -0.39977 1.19932
                CHANNELS 3 Zrotation Xrotation Yrotation
                JOINT rThumb2
                {
                  OFFSET -0.998132 0 1.47145
                  CHANNELS 3 Zrotation Xrotation Yrotation
                  End Site
                  {
                    OFFSET -0.977841 -0.278837 0.829828
                  }
                }
              }
            }
          }
        }
      }
      JOINT lCollar
      {
        OFFSET 1.49915 11.2936 -1.69903
        CHANNELS 3 Zrotation Xrotation Yrotation
        JOINT lShldr
        {
          OFFSET 4.89721 -0.299833 0.799545
          CHANNELS 3 Zrotation Xrotation Yrotation
          JOINT lForeArm
          {
            OFFSET 12.4216 -1.19922 0.931564
            CHANNELS 3 Zrotation Xrotation Yrotation
            JOINT lHand
            {
              OFFSET 9.86568 0.0998482 3.66582
              CHANNELS 3 Zrotation Xrotation Yrotation
              JOINT lRing1
              {
                OFFSET 3.39806 0.399773 0.299829
                CHANNELS 3 Zrotation Xrotation Yrotation
                JOINT lRing2
                {
                  OFFSET 1.29926 -0.199886 0.399772
                  CHANNELS 3 Zrotation Xrotation Yrotation
                  End Site
                  {
                    OFFSET 0.899489 -0.0999425 0.199886
                  }
                }
              }
              JOINT lPinky1
              {
                OFFSET 3.29812 0.0999421 -0.399772
                CHANNELS 3 Zrotation Xrotation Yrotation
                JOINT lPinky2
                {
                  OFFSET 0.899488 -0.0999427 0
                  CHANNELS 3 Zrotation Xrotation Yrotation
                  End Site
                  {
                    OFFSET 0.999427 -0.0999418 0
                  }
                }
              }
              JOINT lMid1
              {
                OFFSET 2.99829 0.499714 1.09937
                CHANNELS 3 Zrotation Xrotation Yrotation
                JOINT lMid2
                {
                  OFFSET 1.45827 -0.0999388 0.600149
                  CHANNELS 3 Zrotation Xrotation Yrotation
                  End Site
                  {
                    OFFSET 1.04031 -0.0999473 0.399282
                  }
                }
              }
              JOINT lThumb1
              {
                OFFSET 0.399772 -0.399773 1.19932
                CHANNELS 3 Zrotation Xrotation Yrotation
                JOINT lThumb2
                {
                  OFFSET 0.99813 0 1.47145
                  CHANNELS 3 Zrotation Xrotation Yrotation
                  End Site
                  {
                    OFFSET 0.97784 -0.27884 0.829828
                  }
                }
              }
              JOINT lIndex1
              {
                OFFSET 2.69846 0.399775 2.09881
                CHANNELS 3 Zrotation Xrotation Yrotation
                JOINT lIndex2
                {
                  OFFSET 1.33823 -0.200884 0.6843
                  CHANNELS 3 Zrotation Xrotation Yrotation
                  End Site
                  {
                    OFFSET 0.760567 0.00099574 0.415074
                  }
                }
              }
            }
          }
        }
      }
      JOINT neck
      {
        OFFSET 0 12.4929 -0.499715
        CHANNELS 3 Zrotation Xrotation Yrotation
        JOINT head
        {
          OFFSET 0 3.59795 0.299829
          CHANNELS 3 Zrotation Xrotation Yrotation
          JOINT rightEye
          {
            OFFSET -1.19932 3.69789 3.19818
            CHANNELS 3 Zrotation Xrotation Yrotation
            End Site
            {
              OFFSET 0 0 0
            }
          }
          JOINT leftEye
          {
            OFFSET 1.19932 3.69789 3.19818
            CHANNELS 3 Zrotation Xrotation Yrotation
            End Site
            {
              OFFSET 0 0 0
            }
          }
        }
      }
    }
  }
  JOINT rButtock
  {
    OFFSET -4.19761 -0.599656 -0.299829
    CHANNELS 3 Zrotation Xrotation Yrotation
    JOINT rThigh
    {
      OFFSET 0 -1.49915 0
      CHANNELS 3 Zrotation Xrotation Yrotation
      JOINT rShin
      {
        OFFSET 0.699602 -17.6899 -1.09938
        CHANNELS 3 Zrotation Xrotation Yrotation
        JOINT rFoot
        {
          OFFSET -0.699602 -18.0897 -0.699602
          CHANNELS 3 Zrotation Xrotation Yrotation
          End Site
          {
            OFFSET 0 -2.09881 5.59681
          }
        }
      }
    }
  }
  JOINT lButtock
  {
    OFFSET 4.19761 -0.599656 -0.299829
    CHANNELS 3 Zrotation Xrotation Yrotation
    JOINT lThigh
    {
      OFFSET 0 -1.49914 0
      CHANNELS 3 Zrotation Xrotation Yrotation
      JOINT lShin
      {
        OFFSET -0.699602 -17.6899 -1.09937
        CHANNELS 3 Zrotation Xrotation Yrotation
        JOINT lFoot
        {
          OFFSET 0.699602 -18.0897 -0.699602
          CHANNELS 3 Zrotation Xrotation Yrotation
          End Site
          {
            OFFSET 0 -2.0988 5.59681
          }
        }
      }
    }
  }
}
MOTION
Frames:	7
Frame Time:	0.0333333
63.9115 45.6495 86.1472 0.0297065 -0.0323162 -148.915 -0.00975517 -0.00975351 -0.00975351 -1.01027 -0.611387 -5.07761 4.71058 -0.128761 -2.99169 79.5462 5.84764 -27.5007 -11.9081 9.83734 43.2655 -2.46924 -1.03984 7.7513 -0.00770581 -0.00788924 -0.0111498 2.42724 -0.497531 4.4329 -0.00609359 -0.00836005 -0.0103539 -0.219774 0.404224 1.44943 -0.00542281 -0.00718716 -0.0109602 8.61189 -0.00181146 -1.79828 -0.00972242 -0.00830664 -0.0110365 0.62967 -0.00953165 -0.000952808 4.66517e-005 -0.045626 -0.00979214 -9.39785 -7.91692 -0.663799 -2.49565 0.764047 -12.4508 -75.6206 11.1686 14.0285 9.87443 8.63863 -43.6177 -7.19581 2.63075 0.40265 -0.0119141 -0.010955 -0.00814197 -2.42834 -0.502432 -4.4324 -0.00991893 -0.0110088 -0.00833112 -0.629806 -0.00995831 0.0010087 -0.0134417 -0.00969646 -0.00912631 0.204764 0.414792 -1.45043 4.09032e-005 -0.0456252 -0.00980861 9.41156 -7.94154 0.625637 -0.0141822 -0.0100536 -0.00836086 -8.62278 -0.0233167 1.79819 0.946471 0.723129 5.15429 -9.72659 -17.6598 -22.0384 0 0 0 0 0 0 -0.00975517 -0.00969887 -0.00983547 9.45374 -21.8181 -7.39849 0.221951 1.70329 5.79803 -11.2493 25.86 1.98459 -0.00975517 -0.00983547 -0.00969887 -5.8953 8.21203 11.1956 -0.13119 4.18756 -2.74996 4.65395 17.9906 -0.214024 
63.3608 45.4568 85.2651 -0.170418 -1.07548 -148.855 -0.00975517 -0.00975351 -0.00975351 -2.3841 -1.91142 -4.73758 4.87589 -0.0438379 -1.64148 79.2398 3.29124 -28.2199 -17.6208 14.0233 41.6526 -7.72138 -4.01581 16.0607 -0.00770581 -0.00788924 -0.0111498 2.42724 -0.497531 4.4329 -0.00609359 -0.00836005 -0.0103539 -0.219774 0.404224 1.44943 -0.00542281 -0.00718716 -0.0109602 8.61171 -0.00181146 -1.79828 -0.00972242 -0.00830664 -0.0110365 0.62967 -0.00953165 -0.000952808 4.66517e-005 -0.045626 -0.00979214 -9.39785 -7.91692 -0.663799 -1.9994 0.704956 -13.5706 -75.498 11.0572 13.2107 9.93108 8.72825 -43.4477 -7.66051 2.79182 0.525245 -0.0119141 -0.010955 -0.00814197 -2.42834 -0.502432 -4.4324 -0.00991893 -0.0110088 -0.00833112 -0.629806 -0.00995831 0.0010087 -0.0134417 -0.00969646 -0.00912631 0.204764 0.414792 -1.45043 4.09032e-005 -0.0456252 -0.00980861 9.41156 -7.94154 0.625637 -0.0141822 -0.0100536 -0.00836086 -8.62278 -0.0233167 1.79819 1.50445 2.06596 4.77795 -8.69829 -18.9354 -26.1257 0 0 0 0 0 0 -0.00975517 -0.00969887 -0.00983547 8.88602 -22.7269 -7.35601 0.221189 1.69899 5.79134 -11.4211 24.098 1.9197 -0.00975517 -0.00983547 -0.00969887 -6.74136 8.99833 10.233 -0.108416 3.73158 -2.23731 4.29873 18.1602 -0.144295 
62.653 45.312 84.4947 -0.0435931 -1.13572 -148.499 -0.00975517 -0.00975351 -0.00975351 -2.36058 -2.39705 -4.81802 4.78843 -0.0846756 -2.2728 78.742 3.6662 -28.1363 -14.9123 12.9608 40.3506 -1.92395 -0.842653 12.7058 -0.00770581 -0.00788924 -0.0111498 2.42724 -0.497531 4.4329 -0.00609359 -0.00836005 -0.0103539 -0.219774 0.404224 1.44943 -0.00542281 -0.00718716 -0.0109602 8.61162 -0.00181146 -1.79828 -0.00972242 -0.00830664 -0.0110365 0.62967 -0.00953165 -0.000952808 4.66517e-005 -0.045626 -0.00979214 -9.39785 -7.91692 -0.663799 -2.02859 0.718789 -13.8138 -75.4542 10.85 12.6023 10.4185 9.09395 -43.1614 -7.43854 2.73845 0.18758 -0.0119141 -0.010955 -0.00814197 -2.42834 -0.502432 -4.4324 -0.00991893 -0.0110088 -0.00833112 -0.629806 -0.00995831 0.0010087 -0.0134417 -0.00969646 -0.00912631 0.204764 0.414792 -1.45043 4.09032e-005 -0.0456252 -0.00980861 9.41156 -7.94154 0.625637 -0.0141822 -0.0100536 -0.00836086 -8.62278 -0.0233167 1.79819 1.50794 2.55556 4.85798 -10.0364 -19.3373 -27.5619 0 0 0 0 0 0 -0.00975517 -0.00969887 -0.00983547 8.62377 -22.3331 -7.30831 0.191034 1.6571 5.00069 -11.2285 26.8012 2.03681 -0.00975517 -0.00983547 -0.00969887 -6.7793 9.97239 9.98676 -0.14078 4.1527 -3.00568 4.44689 18.8464 -0.173579 
61.9324 45.2105 83.6804 0.572097 -1.1399 -148.678 -0.00975517 -0.00975351 -0.00975351 -2.00915 -2.97521 -4.80381 5.03603 -0.0638875 -2.17741 78.0559 3.06596 -28.1746 -13.3547 12.2266 39.7649 1.67225 0.836832 8.09685 -0.00770581 -0.00788924 -0.0111498 2.42724 -0.497531 4.4329 -0.00609359 -0.00836005 -0.0103539 -0.219774 0.404224 1.44943 -0.00542281 -0.00718716 -0.0109602 8.61153 -0.00181146 -1.79828 -0.00972242 -0.00830664 -0.0110365 0.62967 -0.00953165 -0.000952808 4.66517e-005 -0.045626 -0.00979214 -9.39785 -7.91692 -0.663799 -1.82164 0.682718 -14.0154 -75.3935 10.8872 12.411 10.885 9.34165 -43.1808 -7.56275 2.81742 -0.196878 -0.0119141 -0.010955 -0.00814197 -2.42834 -0.502432 -4.4324 -0.00991893 -0.0110088 -0.00833112 -0.629806 -0.00995831 0.0010087 -0.0134417 -0.00969646 -0.00912631 0.204764 0.414792 -1.45043 4.09032e-005 -0.0456252 -0.00980861 9.41156 -7.94154 0.625637 -0.0141822 -0.0100536 -0.00836086 -8.62278 -0.0233167 1.79819 1.6333 3.14606 4.81828 -9.76949 -20.2516 -24.5917 0 0 0 0 0 0 -0.00975517 -0.00969887 -0.00983547 9.03301 -21.9533 -7.0128 0.203655 1.66625 5.32942 -11.0291 29.2106 2.1263 -0.00975517 -0.00983547 -0.00969887 -6.51833 10.7195 9.54982 -0.124932 4.25884 -2.60095 4.55071 20.8255 -0.196693 
61.2052 45.1891 82.8284 1.47637 -1.00651 -149.285 -0.00975517 -0.00975351 -0.00975351 -1.43164 -3.50515 -4.72486 5.7528 -0.0135085 -2.0919 76.8412 2.37601 -27.9179 -13.1903 12.1082 39.7883 2.6244 1.20493 6.39034 -0.00770581 -0.00788924 -0.0111498 2.42724 -0.497531 4.4329 -0.00609359 -0.00836005 -0.0103539 -0.219774 0.404224 1.44943 -0.00542281 -0.00718716 -0.0109602 8.61145 -0.00181146 -1.79828 -0.00972242 -0.00830664 -0.0110365 0.62967 -0.00953165 -0.000952808 4.66517e-005 -0.045626 -0.00979214 -9.39785 -7.91692 -0.663799 -1.24475 0.567872 -14.1732 -75.7379 11.039 12.4678 11.1556 9.48376 -43.1973 -6.93263 2.5655 -0.00111694 -0.0119141 -0.010955 -0.00814197 -2.42834 -0.502432 -4.4324 -0.00991893 -0.0110088 -0.00833112 -0.629806 -0.00995831 0.0010087 -0.0134417 -0.00969646 -0.00912631 0.204764 0.414792 -1.45043 4.09032e-005 -0.0456252 -0.00980861 9.41156 -7.94154 0.625637 -0.0141822 -0.0100536 -0.00836086 -8.62278 -0.0233167 1.79819 1.87292 3.69508 4.67984 -8.91731 -21.7768 -23.7238 0 0 0 0 0 0 -0.00975517 -0.00969887 -0.00983547 9.88486 -21.2803 -6.47367 0.254866 1.72319 6.68749 -10.9657 30.9991 2.21442 -0.00975517 -0.00983547 -0.00969887 -6.04196 11.4653 8.84093 -0.112344 3.90146 -2.32172 4.69239 24.302 -0.235928 
60.4574 45.2177 81.9288 2.24037 -0.734012 -150.021 -0.00975517 -0.00975351 -0.00975351 -0.872137 -3.86808 -4.71066 6.21779 0.00415688 -2.2663 75.9982 2.0671 -27.4602 -13.2449 12.1492 39.7769 2.29916 1.07385 6.71064 -0.00770581 -0.00788924 -0.0111498 2.42724 -0.497531 4.4329 -0.00609359 -0.00836005 -0.0103539 -0.219774 0.404224 1.44943 -0.00542281 -0.00718716 -0.0109602 8.61136 -0.00181146 -1.79828 -0.00972242 -0.00830664 -0.0110365 0.62967 -0.00953165 -0.000952808 4.66517e-005 -0.045626 -0.00979214 -9.39785 -7.91692 -0.663799 -0.507518 0.418803 -14.3786 -76.3696 10.9594 12.8139 11.5174 9.63508 -43.3196 -6.62283 2.42369 0.344274 -0.0119141 -0.010955 -0.00814197 -2.42834 -0.502432 -4.4324 -0.00991893 -0.0110088 -0.00833112 -0.629806 -0.00995831 0.0010087 -0.0134417 -0.00969646 -0.00912631 0.204764 0.414792 -1.45043 4.09032e-005 -0.0456252 -0.00980861 9.41156 -7.94154 0.625637 -0.0141822 -0.0100536 -0.00836086 -8.62278 -0.0233167 1.79819 2.10428 4.07738 4.58311 -8.36499 -22.8981 -23.8586 0 0 0 0 0 0 -0.00975517 -0.00969887 -0.00983547 10.6557 -20.1609 -5.76573 0.29104 1.77971 7.67219 -10.8189 32.2705 2.24321 -0.00975517 -0.00983547 -0.00969887 -5.61377 12.2614 7.8237 -0.145283 3.60259 -3.16916 4.57876 28.6584 -0.212924 
59.7019 45.2708 81.0079 3.09539 -0.437304 -151.112 -0.00975517 -0.00975351 -0.00975351 -0.110046 -4.1891 -4.50377 6.51733 0.00154641 -2.56645 75.4172 1.92918 -26.8033 -12.3838 11.6677 39.6007 2.78492 1.26838 6.22061 -0.00770581 -0.00788924 -0.0111498 2.42724 -0.497531 4.4329 -0.00609359 -0.00836005 -0.0103539 -0.219774 0.404224 1.44943 -0.00542281 -0.00718716 -0.0109602 8.61128 -0.00181146 -1.79828 -0.00972242 -0.00830664 -0.0110365 0.62967 -0.00953165 -0.000952808 4.66517e-005 -0.045626 -0.00979214 -9.39785 -7.91692 -0.663799 0.304457 0.247672 -14.2732 -77.014 11.1315 13.0697 11.2643 9.57681 -43.1107 -6.86103 2.50618 0.415287 -0.0119141 -0.010955 -0.00814197 -2.42834 -0.502432 -4.4324 -0.00991893 -0.0110088 -0.00833112 -0.629806 -0.00995831 0.0010087 -0.0134417 -0.00969646 -0.00912631 0.204764 0.414792 -1.45043 4.09032e-005 -0.0456252 -0.00980861 9.41156 -7.94154 0.625637 -0.0141822 -0.0100536 -0.00836086 -8.62278 -0.0233167 1.79819 2.26018 4.40109 4.28241 -8.59683 -23.5992 -22.4001 0 0 0 0 0 0 -0.00975517 -0.00969887 -0.00983547 11.6829 -18.8495 -4.92119 0.297398 1.80864 7.85021 -10.7333 32.9795 2.25672 -0.00975517 -0.00983547 -0.00969887 -5.0642 12.852 6.61979 -0.212018 3.61946 -4.87189 4.20898 32.7204 -0.0967837 
